<?xml version="1.0" encoding="utf-8"?>
<!-- Generator: Adobe Illustrator 28.2.0, SVG Export Plug-In . SVG Version: 6.00 Build 0)  -->
<svg version="1.1" id="图层_1" xmlns="http://www.w3.org/2000/svg" xmlns:xlink="http://www.w3.org/1999/xlink" x="0px" y="0px"
	 viewBox="0 0 720 420" style="enable-background:new 0 0 720 420;" xml:space="preserve">
<style type="text/css">
	.st0{opacity:0.95;fill:#FFFFFF;enable-background:new    ;}
	.st1{opacity:0.95;fill:none;stroke:#D0B24A;stroke-width:2.5;enable-background:new    ;}
	.st2{fill:none;stroke:#666666;stroke-width:3;stroke-linecap:round;stroke-dasharray:1,10;animation:rotateCircle 20s linear infinite;transform-box:fill-box;transform-origin:center;}
	.st3{fill:url(#SVGID_1_);}
	.st4{opacity:0.3;fill:none;stroke:#000000;stroke-width:10;stroke-miterlimit:10;}
	.st5{opacity:0.95;fill:none;stroke:#D0B24A;stroke-width:5;stroke-linejoin:round;enable-background:new    ;}
	.st6{opacity:0.95;fill:#2F5A3A;enable-background:new    ;}
	.st7{opacity:0.95;fill:#B15A3C;enable-background:new    ;}
	.st8{opacity:0.95;fill:#3B6EA8;enable-background:new    ;}
	.st9{opacity:0.95;fill:#D0B24A;enable-background:new    ;}

	@keyframes rotateCircle {
		to {
			transform: rotate(360deg);
		}
	}
</style>
<circle class="st0" cx="380" cy="250" r="120"/>
<path class="st1" d="M617.3,347.3c-70.3,70.3-184.3,70.3-254.6,0l0,0"/>
<g>
	<circle shape-rendering="crispEdges" class="st2" cx="284.5" cy="230.2" r="120"/>
	<circle shape-rendering="crispEdges" class="st2" cx="331" cy="208.3" r="120"/>
	<circle shape-rendering="crispEdges" class="st2" cx="274.9" cy="206.5" r="120"/>
	<circle shape-rendering="crispEdges" class="st2" cx="333.7" cy="192.5" r="120"/>
	<circle shape-rendering="crispEdges" class="st2" cx="363.9" cy="144.2" r="120"/>
</g>
<linearGradient id="SVGID_1_" gradientUnits="userSpaceOnUse" x1="-858.4084" y1="3.3416" x2="-857.4084" y2="4.3416" gradientTransform="matrix(240 0 0 240 206238 -712)">
	<stop  offset="0" style="stop-color:#000000"/>
	<stop  offset="1" style="stop-color:#000000"/>
</linearGradient>
<circle class="st3" cx="340" cy="210" r="120"/>
<circle class="st4" cx="340" cy="210" r="128"/>
<path class="st5" d="M399.9,250.1l60,60"/>
<path class="st5" d="M390,260l60,60"/>
<path class="st5" d="M380.1,269.9l60,60"/>
<circle class="st6" cx="283.4" cy="153.4" r="18"/>
<circle class="st7" cx="262.6" cy="189.9" r="18"/>
<circle class="st8" cx="319.9" cy="132.6" r="18"/>
<circle class="st9" cx="262" cy="227.9" r="14"/>
</svg>
