<?xml version="1.0" encoding="utf-8"?>
<!-- Generator: Adobe Illustrator 28.2.0, SVG Export Plug-In . SVG Version: 6.00 Build 0)  -->
<svg version="1.1" id="图层_1" xmlns="http://www.w3.org/2000/svg" xmlns:xlink="http://www.w3.org/1999/xlink" x="0px" y="0px"
	 viewBox="0 0 720 420" style="enable-background:new 0 0 720 420;" xml:space="preserve">
<style type="text/css">
	.st0{opacity:0.95;fill:#FFFFFF;enable-background:new    ;}
	.st1{fill:none;stroke:#FFFFFF;stroke-width:3;stroke-linecap:round;}
	.st2{opacity:0.95;fill:none;stroke:#D0B24A;stroke-width:2.5;stroke-dasharray:6,4;enable-background:new    ;}
	.st3{opacity:0.95;fill:none;stroke:#D0B24A;stroke-width:2.5;enable-background:new    ;}
	.st4{fill:none;stroke:#666666;stroke-width:3;stroke-linecap:round;stroke-dasharray:1,10;}
	.st5{fill:url(#SVGID_1_);}
	.st6{opacity:0.3;fill:none;stroke:#000000;stroke-width:6;stroke-miterlimit:10;}
	.st7{opacity:0.95;fill:none;stroke:#D0B24A;stroke-width:5;stroke-linejoin:round;enable-background:new    ;}
	.st8{opacity:0.95;fill:#B15A3C;enable-background:new    ;}
	.st9{opacity:0.95;fill:#2F5A3A;enable-background:new    ;}
	.st10{opacity:0.95;fill:#D0B24A;enable-background:new    ;}
</style>
<circle class="st0" cx="380" cy="250" r="120"/>
<circle class="st1" cx="400" cy="270" r="120"/>
<path class="st2" d="M617.3,347.3c-22.3,22.3-50.2,38.4-80.7,46.6"/>
<path class="st3" d="M536.6,393.9c-62.1,16.6-128.4-1.1-173.9-46.6"/>
<g>
	<circle shape-rendering="crispEdges" class="st4" cx="297.4" cy="210" r="120"/>
	<circle shape-rendering="crispEdges" class="st4" cx="323.6" cy="181.3" r="120"/>
	<circle shape-rendering="crispEdges" class="st4" cx="340" cy="160" r="120"/>
</g>
<linearGradient id="SVGID_1_" gradientUnits="userSpaceOnUse" x1="-858.4084" y1="3.3416" x2="-857.4084" y2="4.3416" gradientTransform="matrix(240 0 0 240 206238 -712)">
	<stop  offset="0" style="stop-color:#000000"/>
	<stop  offset="0.3" style="stop-color:#000000"/>
	<stop  offset="1" style="stop-color:#000000;stop-opacity:0.5"/>
</linearGradient>
<circle class="st5" cx="340" cy="210" r="120"/>
<circle class="st6" cx="340" cy="210" r="125"/>
<path class="st7" d="M399.9,250.1l60,60"/>
<path class="st7" d="M390,260l60,60"/>
<path class="st7" d="M380.1,269.9l60,60"/>
<circle class="st8" cx="283.4" cy="153.4" r="18"/>
<circle class="st9" cx="263.7" cy="185.9" r="14"/>
<circle class="st10" cx="315.9" cy="133.7" r="14"/>
</svg>
